<?xml version="1.0" standalone="no"?>
<svg xmlns="http://www.w3.org/2000/svg" xmlns:xlink="http://www.w3.org/1999/xlink" height="100px" width="100px">
  <defs>
    <pattern id="doodad" width="55" height="55" viewBox="0 0 40 40" patternUnits="userSpaceOnUse" patternTransform="rotate(45)">
      <rect width="100%" height="100%" fill="rgba(112, 86, 109,1)"/>
      <path d="M-20 14l20-20l20 20l20-20l20 20l20-20l20 20v-8l-20-20l-20 20l-20-20l-20 20l-20-20l-20 20zM-20-26l20-20l20 20l20-20l20 20l20-20l20 20v-8l-20-20l-20 20l-20-20l-20 20l-20-20l-20 20zM-20 54l20-20l20 20l20-20l20 20l20-20l20 20v-8l-20-20l-20 20l-20-20l-20 20l-20-20l-20 20z " fill="rgba(158, 228, 146,1)"/>
      <path d="M-20 33.5l20-20l20 20l20-20l20 20l20-20l20 20v-7l-20-20l-20 20l-20-20l-20 20l-20-20l-20 20zM-20-6.5l20-20l20 20l20-20l20 20l20-20l20 20v-7l-20-20l-20 20l-20-20l-20 20l-20-20l-20 20zM-20 73.5l20-20l20 20l20-20l20 20l20-20l20 20v-7l-20-20l-20 20l-20-20l-20 20l-20-20l-20 20z " fill="rgba(66, 39, 59,1)"/>
      <path d="M-20 34l20-20l20 20l20-20l20 20l20-20l20 20v-8l-20-20l-20 20l-20-20l-20 20l-20-20l-20 20zM-20-6l20-20l20 20l20-20l20 20l20-20l20 20v-8l-20-20l-20 20l-20-20l-20 20l-20-20l-20 20zM-20 74l20-20l20 20l20-20l20 20l20-20l20 20v-8l-20-20l-20 20l-20-20l-20 20l-20-20l-20 20z " fill="rgba(158, 228, 146,1)"/>
    </pattern>
  </defs>
  <rect fill="url(#doodad)" height="200%" width="200%"/>
</svg>
